<?xml version="1.0" encoding="utf-8"?>
<!-- Generator: Adobe Illustrator 25.4.1, SVG Export Plug-In . SVG Version: 6.00 Build 0)  -->
<svg version="1.1" id="Layer_1" xmlns="http://www.w3.org/2000/svg" xmlns:xlink="http://www.w3.org/1999/xlink" x="0px" y="0px"
	 viewBox="0 0 104 77" style="enable-background:new 0 0 104 77;" xml:space="preserve">
<style type="text/css">
	.st0{fill-opacity:0.2;}
	.st1{fill:none;stroke:#000000;stroke-width:0.4765;}
	.st2{fill:none;stroke:#000000;stroke-width:0.4765;stroke-opacity:0.2;}
	.st3{font-family:'GrapeNuts-Regular';}
	.st4{font-size:23.8924px;}
</style>
<path d="M56.1,2.8l0.2,6.8c0.1,2.5,2.1,4.6,4.7,4.7l6.8,0.2L61,14.7c-2.5,0.1-4.6,2.1-4.7,4.7l-0.2,6.8l-0.2-6.8
	c-0.1-2.5-2.1-4.6-4.7-4.7l-6.8-0.2l6.8-0.2c2.5-0.1,4.6-2.1,4.7-4.7L56.1,2.8z"/>
<path class="st0" d="M56.1,2.8l0.2,6.8c0.1,2.5,2.1,4.6,4.7,4.7l6.8,0.2L61,14.7c-2.5,0.1-4.6,2.1-4.7,4.7l-0.2,6.8l-0.2-6.8
	c-0.1-2.5-2.1-4.6-4.7-4.7l-6.8-0.2l6.8-0.2c2.5-0.1,4.6-2.1,4.7-4.7L56.1,2.8z"/>
<path d="M39.7,50.2l0.2,6.1c0.1,2.3,1.9,4.1,4.2,4.2l6.1,0.2L44,60.9c-2.3,0.1-4.1,1.9-4.2,4.2l-0.2,6.1l-0.2-6.1
	c-0.1-2.3-1.9-4.1-4.2-4.2l-6.1-0.2l6.1-0.2c2.3-0.1,4.1-1.9,4.2-4.2L39.7,50.2z"/>
<path class="st0" d="M39.7,50.2l0.2,6.1c0.1,2.3,1.9,4.1,4.2,4.2l6.1,0.2L44,60.9c-2.3,0.1-4.1,1.9-4.2,4.2l-0.2,6.1l-0.2-6.1
	c-0.1-2.3-1.9-4.1-4.2-4.2l-6.1-0.2l6.1-0.2c2.3-0.1,4.1-1.9,4.2-4.2L39.7,50.2z"/>
<path class="st1" d="M95.4,22.9c2.1,5.9-0.7,13.1-7.2,19.9C81.7,49.6,71.7,56,59.6,60.4s-23.9,5.9-33.2,4.8
	C17,64,10.3,60.3,8.1,54.4C6,48.5,8.9,41.3,15.3,34.5c6.5-6.8,16.5-13.2,28.6-17.6c12.1-4.4,23.9-5.9,33.2-4.8
	C86.5,13.3,93.3,17,95.4,22.9z"/>
<path class="st2" d="M95.4,22.9c2.1,5.9-0.7,13.1-7.2,19.9C81.7,49.6,71.7,56,59.6,60.4s-23.9,5.9-33.2,4.8
	C17,64,10.3,60.3,8.1,54.4C6,48.5,8.9,41.3,15.3,34.5c6.5-6.8,16.5-13.2,28.6-17.6c12.1-4.4,23.9-5.9,33.2-4.8
	C86.5,13.3,93.3,17,95.4,22.9z"/>
<text transform="matrix(0.9417 -0.3365 0.3365 0.9417 25.0705 51.7725)" class="st3 st4">Design</text>
</svg>
