<?xml version="1.0" encoding="utf-8"?>
<!-- Generator: Adobe Illustrator 25.4.1, SVG Export Plug-In . SVG Version: 6.00 Build 0)  -->
<svg version="1.2" baseProfile="tiny" id="Layer_1" xmlns="http://www.w3.org/2000/svg" xmlns:xlink="http://www.w3.org/1999/xlink"
	 x="0px" y="0px" viewBox="0 0 377.2 305.9" overflow="visible" xml:space="preserve">
<g>
	<g>
		<g>
			<path fill="#FFFFFF" d="M114.9,152.7c-3.2,23.8,1.2,48.9,11.3,70.9c2.9,6.2,6.2,12.2,10,17.9c0.3,0.5,1.2-0.1,0.8-0.6
				c-13.3-20.2-20.9-43.8-22-67.6c-0.3-6.4,0-12.8,0.6-19.2c9.2,21.4,15.9,43.6,19.4,66.5c0.5,3.1,0.9,6.3,1.3,9.5
				c0.4,3.3,0.6,6.6,1.2,9.9c0,0.2,0.4,0.2,0.4-0.1c0.1-2.9-0.3-5.9-0.6-8.9c-0.3-2.9-0.7-5.9-1.1-8.8c-0.8-5.6-1.8-11.1-3-16.7
				c-2.4-11.4-5.6-22.7-9.5-33.8c-2.2-6.3-4.6-12.6-7.4-18.7c-0.1-0.3-0.5-0.3-0.7-0.2l0,0C115.8,152.2,114.9,152.2,114.9,152.7z"/>
		</g>
		<g>
			<path fill="#FFFFFF" d="M208,221c-8.4,4.1-16.8,8.1-25.6,11.5c-8.8,3.5-17.9,6.5-27,9c-5.2,1.4-10.4,2.7-15.6,3.9
				c-0.1,0-0.1,0.1,0,0.1c18.5-3.5,36.6-9.1,53.8-16.7c5-2.2,9.9-4.4,14.7-7C208.8,221.6,208.6,220.7,208,221z"/>
		</g>
		<g>
			<path fill="#FFFFFF" d="M205.2,134.3c-2.5,0-5.1,0.7-7.7,1.1c-2.5,0.4-5,0.7-7.5,1.1c-5.2,0.7-36.8,6.3-42,6.9
				c-10.3,1.2-20.7,1.9-31.1,2.6c-0.3,0-0.4,0.6-0.1,0.6c10.3-0.1,20.7-0.9,31-1.8c5.2-0.5,36.9-5.9,42-6.6c2.6-0.3,5.2-0.7,7.7-1.1
				c2.5-0.4,5.2-0.6,7.6-1.3C206,135.5,206.1,134.3,205.2,134.3z"/>
		</g>
		<g>
			<path fill="#FFFFFF" d="M205.9,137.8c2.6,4.5,5.4,8.7,7.6,13.4c2.1,4.5,3.9,9.2,5.4,14c2.9,9.7,4.4,19.9,4.2,30
				c0,2.9-0.2,5.7-0.5,8.6c-0.3,2.9-0.5,5.8-1.1,8.6c0,0.1,0.1,0.1,0.1,0c0.4-2,0.9-3.9,1.3-5.8c1.5-0.3,3.2-0.5,4.5-1.2
				c0.3-0.1,0.3-0.6-0.1-0.6c-1.5,0.2-3,0.9-4.4,1.5c0.1-0.5,0.2-1.1,0.3-1.7c0.4-2.5,0.7-5,0.8-7.5c0.4-5.2,0.3-10.5-0.2-15.7
				c-1-10.3-3.6-20.4-7.7-29.8c-2.3-5.2-4.9-10.8-8.5-15.3C207,135.3,205.3,136.6,205.9,137.8z"/>
		</g>
		<g>
			<path fill="#FFFFFF" d="M217.3,144.8c0.7,1.7,1.9,3.3,2.9,4.9c1,1.8,2,3.6,2.9,5.5c1.7,3.6,3.1,7.3,4.2,11.1
				c2.2,7.7,3.1,15.6,2.9,23.6c-0.1,4.5-0.7,9.1-1.4,13.5c-0.1,0.3,0.4,0.3,0.4,0c5.1-15.5,3.2-33.2-3.3-48c-0.9-2.1-1.9-4.1-3-6.1
				s-2.2-4.3-3.8-5.8C218.3,142.9,217,144,217.3,144.8z"/>
		</g>
		<g>
			<path fill="#FFFFFF" d="M214.2,136.8c-1.5,0.6-2.9,1.4-4.3,2.2c-0.5,0.3-0.3,1,0.3,0.8c1.5-0.6,3.1-1,4.5-1.7
				C215.4,137.6,215.1,136.5,214.2,136.8z"/>
		</g>
		<g>
			<path fill="#FFFFFF" d="M374.9,55.1c-5.8-12.9-19.6-18.2-32.9-19.5c-7.6-0.7-15.2-0.4-22.7-0.4c-7.8,0-16.2-0.2-23.6-2.9
				c-4.8-1.8-11-6.7-8.1-12.5c1.3-2.7,4.2-4.3,6.9-5.3c3.2-1.2,6.6-1.9,9.9-2.6c15.4-3.2,31-4.6,46.7-4.9c4-0.1,8,0,12.1,0.1
				c0.2,0,0.2-0.3,0-0.3c-15.7-1.1-31.5-0.5-47.1,1.7c-4,0.6-8,1.3-12,2c-3.2,0.6-6.4,1.2-9.5,2.3c-4.8,1.7-10,5.3-9.1,11.1
				c0.8,5.3,6.3,8.7,10.9,10.4c7.5,2.8,15.6,3.3,23.6,3.4c14.4,0.2,30.8-1.2,43.4,7.5c9.5,6.5,15.3,21,6.8,30.6
				c-3.9,4.4-9.6,6.8-15.2,8.1c-6.6,1.6-13.4,2.1-20.1,2.6c-30,2.1-60.2-0.8-90.2,0.9c-14.9,0.8-29.7,2.8-44.1,7.1
				c-13.9,4.1-27.1,10.1-39.3,17.9c-3,1.9-5.9,3.9-8.7,6c-1.2,0.9-0.1,3.2,1.3,3.2c20.8-0.1,41.7-0.3,62.5-0.5
				c20.8-0.1,41.7-0.3,62.5-0.4c10.4-0.1,20.7-0.1,31.1-0.2c8.1-0.1,20.1-1.4,24.8,7c1.7,3,1.4,6.6-0.8,9.3
				c-2.2,2.7-5.7,4.2-8.9,5.3c-4.3,1.4-8.7,2.3-13.1,3.3c-5,1.2-9.9,2.4-14.9,3.6c-20.2,4.8-40.3,9.6-60.4,14.5
				c-2.5,0.6-5.1,1.2-7.6,1.8c-2.2,0.5-1.1,3.9,0.9,3.4c21-5,41.9-10,62.9-15c10.1-2.4,20.3-4.6,30.4-7.3c6.6-1.8,15-5.1,16.1-12.8
				c0.5-4-1.2-7.9-3.9-10.7c-3.2-3.3-7.5-4.9-12-5.5c-5.1-0.7-10.3-0.4-15.3-0.4c-5.4,0-10.8,0.1-16.3,0.1
				c-21.7,0.2-43.4,0.3-65,0.5c-21.6,0.1-43.2,0.3-64.8,0.4c-0.7,0-1.5,0-2.2,0c10.4-7,21.7-12.8,33.5-17.1
				c13.8-5,28.3-7.8,42.9-9.1c29.8-2.7,59.8,0.2,89.6-1.1c7.4-0.3,14.9-0.8,22.2-1.9c5.8-0.8,11.6-2.1,16.9-4.7
				c5.2-2.6,9.5-6.7,11.5-12.3C378.1,66.3,377.2,60.2,374.9,55.1z"/>
		</g>
		<g>
			<path fill="#FFFFFF" d="M366.1,5.7c-0.4-2.1-1.5-4.3-4-3.8c-1.7,0.3-3.1,2.5-1.9,4h0.1c0.1-1.5,0.2-3.3,2.1-3.5
				c2-0.2,2.8,1.8,3.1,3.4c0.3,1.3,0.7,3.1-0.1,4.3c-1.4,2.2-4.3,1.2-4.8-1.1c0-0.2-0.5-0.3-0.5,0c0.2,1.8,1.7,3.2,3.6,2.8
				C366.6,11.1,366.5,7.9,366.1,5.7z"/>
		</g>
		<g>
			<path fill="#FFFFFF" d="M364.2,6.7c-0.3-0.9-1.4-1.3-2.1-0.7c-0.1,0.1,0,0.2,0.1,0.1c0.6-0.3,1.4-0.1,1.6,0.6
				c0.3,0.8-0.7,1.4-1.3,1.2c-0.3-0.1-0.3,0.4-0.1,0.4C363.4,8.8,364.5,7.8,364.2,6.7z"/>
		</g>
		<g>
			<path fill="#FFFFFF" d="M370.2,12c-0.8-0.1-3.9-0.3-4.7-0.4c-0.7-0.1-1.4-0.1-2.1,0c-0.1,0-0.1,0.2,0,0.2
				c1.4,0.4,5.3,0.7,6.8,0.7C370.5,12.4,370.5,12,370.2,12z"/>
		</g>
		<g>
			<path fill="#FFFFFF" d="M369.4,0c-1.8,0.3-4.5,0.9-6.3,1.6c-0.1,0,0,0.1,0.1,0.1c1.9-0.2,4.5-0.9,6.3-1.4
				C369.7,0.3,369.6,0,369.4,0z"/>
		</g>
		<g>
			<path fill="#FFFFFF" d="M369.2,0L369.2,0c5.5,2.3,6.5,9.5,0.5,11.8c-0.5,0.2,0,0.8,0.4,0.7C376.1,10.2,376.2,1.2,369.2,0z"/>
		</g>
		<g>
			<path fill="#FFFFFF" d="M360.1,3.4c-0.6,0.9-0.7,2-0.2,3h0.1c0-1,0.1-1.8,0.5-2.7C360.6,3.4,360.3,3.1,360.1,3.4z"/>
		</g>
		<g>
			<path fill="#FFFFFF" d="M361.5,10.5c-0.6-0.9-1-1.6-1.3-2.7h-0.1c-0.2,1.1,0.2,2.3,1.1,3C361.4,11,361.6,10.7,361.5,10.5z"/>
		</g>
		<g>
			<path fill="#FFFFFF" d="M365.1,6.6c-0.2-1.3-0.5-3.5-2.2-3.7s-2,1.9-1.7,3.1c0,0.2,0.3,0.2,0.3,0c0-0.3-0.1-0.6,0-0.9
				c-0.1-0.6,0.1-1.1,0.6-1.4c0.3-0.5,0.7-0.5,1.2,0.1c0.9,0.4,1,0.4,1.2,1.3c0.1,0.3,0.2,0.7,0.2,1c0.2,0.9,0.3,2-0.2,2.8
				c-0.9,1.5-3.1,1.1-3.5-0.6l0,0c0,1.2,1.1,2.3,2.4,1.9C365,9.9,365.3,8,365.1,6.6z"/>
		</g>
		<g>
			<path fill="#FFFFFF" d="M229.2,203.5c5.1-17.7,2.9-37.2-5.6-53.5c-2.5-4.7-5.4-9.5-9.2-13.2c-0.3-0.3-0.7-0.5-1.1-0.3
				c-2,0.9-4,1.6-5.9,2.7c-0.1,0.1,0,0.2,0.1,0.2c2-0.2,3.9-0.6,5.9-1c2.6,3.6,5.2,7.1,7.3,11.1c2.2,4.1,4,8.3,5.4,12.7
				c2.7,8.8,3.8,18,3.1,27.2c-0.4,5-1.3,10-2.8,14.8c-0.2,0.1-0.4,0.2-0.5,0.3c-0.5,0.2-1,0.5-1.5,0.7c0.2-2.4,0.3-4.7,0.4-7.1
				c0.1-2.5,0-5.1-0.2-7.6s-0.3-5.3-1.2-7.7c0-0.1-0.2-0.1-0.2,0c-0.4,2.3-0.2,4.7-0.2,7c0,2.5-0.2,5-0.3,7.6
				c-0.2,2.6-0.4,5.2-0.8,7.8c-0.2,1.2-0.4,2.5-0.6,3.7c-0.2,0.9-0.4,1.8-0.5,2.7c-0.2,0-0.5,0-0.7,0.2c-20.6,11-42.1,20.3-64.1,28
				c-3.1,1.1-6.1,2.1-9.2,3.1c-3.1,1-6.4,1.8-9.3,3.3c-0.5,0.2-0.1,0.9,0.3,0.8c2.9-0.2,5.7-1.2,8.5-1.9c2.8-0.8,5.6-1.6,8.4-2.5
				c5.6-1.8,11.3-3.7,16.8-5.7c11-4,21.7-8.5,32.3-13.3c2.5-1.1,5-2.3,7.5-3.6c-0.2,0.2-0.4,0.4-0.6,0.6c0,0,0,0.1,0,0
				c1.5-0.5,3-1.5,4.3-2.5c2.2-1.1,4.4-2.3,6.7-3.4c0.4-0.2,0.6-0.6,0.7-0.9c0.2-0.1,0.4-0.2,0.6-0.5c0.6-1.1,0.7-2.5,0.8-3.7
				c0.1-0.9,0.2-1.7,0.3-2.6c0.8,0,1.7-0.3,2.5-0.5c1-0.2,2.3-0.3,2.9-1.1C230.2,204.8,229.9,203.9,229.2,203.5z"/>
		</g>
		<g>
			<path fill="#FFFFFF" d="M190.5,144.1c-9.7-1.2-19.6-1.4-29.4-1.4c-9.7,0-19.4,0.5-29.1,1.4c-5.6,0.5-11.1,1.2-16.6,2
				c-1.8,0.3-0.9,2.9,0.7,2.7c19.2-2.8,38.6-4.4,58-4.4c5.5,0,11,0.1,16.4,0.1C190.6,144.4,190.6,144.2,190.5,144.1z"/>
		</g>
		<g>
			<path fill="#FFFFFF" d="M208,138.3c-0.9-1.4-2.2-3-3.7-3.7c-0.3-0.2-0.7,0.2-0.6,0.5c0.5,1.6,1.9,3.1,3.2,4.2
				C207.5,139.9,208.4,139,208,138.3z"/>
		</g>
		<g>
			<path fill="#FFFFFF" d="M112.9,192.6c-2.1-7.4-2.8-15.1-2.3-22.8c0.3-3.8,0.8-7.6,1.7-11.4c0.4-1.8,0.9-3.6,1.5-5.4
				c0.6-1.8,1.5-3.6,2-5.5c0.3-1.2-1.6-2.5-2.3-1.2c-1.8,3.4-2.5,7.6-3.2,11.4c-0.7,3.9-1.1,7.8-1.2,11.7
				c-0.1,7.9,1.1,15.8,3.5,23.3C112.7,192.8,113,192.8,112.9,192.6z"/>
		</g>
		<g>
			<path fill="#FFFFFF" d="M139.2,243.8c-13.9-14.6-22.5-33.2-26.8-53.4c-0.1-0.4-0.9-0.5-0.8,0c1.6,20.9,11.5,40.9,25.4,55.5
				C138.5,247.4,140.7,245.3,139.2,243.8z"/>
		</g>
		<g>
			<path fill="#FFFFFF" d="M141.4,241.7c0.8-24.2-4.5-49-14.1-71.3c-2.7-6.4-5.8-12.8-9.6-18.6h-0.1c2.6,5.5,5.4,10.9,7.7,16.4
				c2.4,5.7,4.5,11.5,6.3,17.4c3.5,11.6,5.9,23.5,7,35.5c0.6,6.8,0.8,13.5,0.7,20.3C139.4,242.7,141.3,243,141.4,241.7z"/>
		</g>
		<g>
			<path fill="#FFFFFF" d="M213.5,200.5c-2.1,5.2-5,10.1-8.5,14.5c-1.7,2.2-3.6,4.2-5.6,6.1c-2,1.9-4.6,3.5-6.5,5.5
				c-0.5,0.6,0.2,1.6,0.9,1.3c2.5-1.2,4.6-3.4,6.6-5.3c2.1-2,4-4.2,5.7-6.5c3.5-4.6,6.3-9.8,8.2-15.2
				C214.5,200.3,213.7,199.9,213.5,200.5z"/>
		</g>
		<g>
			<path fill="#FFFFFF" d="M208.9,138.5c-0.3-0.9-0.9-1.7-1.4-2.4c-0.4-0.5-1-1.6-1.7-1.6c-0.1,0-0.3,0-0.4,0.2
				c-0.3,0.6,0.3,1.6,0.5,2.1c0.4,0.8,0.9,1.8,1.5,2.4C208,139.8,209.2,139.5,208.9,138.5z"/>
		</g>
		<g>
			<path fill="#FFFFFF" d="M129.4,191c-7.2-22.4-11.6-35.2-13.7-38.2l-0.1,1.2c0,0-3.5,23.3,3.1,47.6c5.3,19.3,18.3,39.2,18.3,39.2
				S136.6,213.4,129.4,191z"/>
		</g>
		<g>
			<path fill="#FFFFFF" d="M228.5,189.3c-0.3-5.4-0.9-10.8-2-16.2c-2.2-11.2-5.9-22.1-11.7-31.9c-0.1-0.2-0.4-0.1-0.3,0.1
				c4.5,10.1,8.3,20.5,10.3,31.4c1,5.4,1.7,10.8,1.9,16.3c0.2,5.6-0.6,11.1-0.5,16.6c0,1,1.7,1.7,1.9,0.5
				C229.3,200.9,228.9,194.8,228.5,189.3z"/>
		</g>
		<g>
			<path fill="#FFFFFF" d="M85.4,149.2c-26.6-8.1-53.7-14.3-80.8-20.5c-5.7-1.3-6.1,7.1-0.9,8.2c27,5.5,54.1,11,81.5,14.5
				C86.7,151.5,86.7,149.6,85.4,149.2z"/>
		</g>
		<g>
			<path fill="#FFFFFF" d="M74,185.4c-7.3-1.3-14.7-1.6-22-2c-7.6-0.5-16-2-23.5-1c-3.4,0.5-3.2,5.2,0.1,5.8
				c7.5,1.2,15.7,0,23.2-0.3s15-0.3,22.4-1.5C74.8,186.3,74.5,185.4,74,185.4z"/>
		</g>
		<g>
			<path fill="#FFFFFF" d="M84.4,215.4c-6.2,0-12.6,1.9-18.7,3.1c-7,1.4-13.9,3-20.8,4.5c-13.6,3-27.1,6.4-40.8,8.7
				c-4.8,0.8-1.5,8.8,3.1,7.3c13.1-4.2,26.6-7.3,39.9-10.9c6.5-1.7,13-3.5,19.5-5.3c6.1-1.7,12.8-2.9,18.5-6
				C85.9,216.5,85.1,215.4,84.4,215.4z"/>
		</g>
		<g>
			<path fill="#FFFFFF" d="M93.8,237.2c-7.3,3.1-14.1,7.6-20.9,11.7c-3.6,2.2-7.2,4.3-10.7,6.5c-3.3,2-6.8,3.7-9.4,6.5
				c-2,2.2,1.1,5.5,3.6,4.8c7-2.2,13.7-8,19.8-11.9c6.7-4.3,13.9-8.4,19.9-13.6C97.8,239.6,96.1,236.2,93.8,237.2z"/>
		</g>
		<g>
			<path fill="#FFFFFF" d="M116.7,249.5c-8.7,7.9-16.2,17.3-23.6,26.4c-3.6,4.5-7.3,8.9-10.9,13.4c-3.2,4-7.9,8.1-9,13.2
				c-0.6,2.6,2.8,4.1,4.7,3.1c4.7-2.3,7.9-8.9,10.9-13.1c3.4-4.7,6.8-9.3,10.2-14c6.5-9.2,13.4-18.4,18.6-28.4
				C118,249.6,117.1,249.2,116.7,249.5z"/>
		</g>
	</g>
</g>
</svg>
