<?xml version="1.0" encoding="utf-8"?>
<!-- Generator: Adobe Illustrator 25.4.1, SVG Export Plug-In . SVG Version: 6.00 Build 0)  -->
<svg version="1.2" baseProfile="tiny" id="Layer_1" xmlns="http://www.w3.org/2000/svg" xmlns:xlink="http://www.w3.org/1999/xlink"
	 x="0px" y="0px" viewBox="0 0 23.5 12.4" overflow="visible" xml:space="preserve">
<g>
	<path fill="#FFFFFF" d="M6,11.3c-0.9,0.8-2.2,1.1-3.4,0.8C1.1,11.8,0.1,10,0.2,8.5c0-1.6,1.2-3.3,2.9-3.6c1.6-0.2,3.2,0.7,3.8,2.2
		c0,0.3,0.1,0.5,0.2,0.8c0-0.1,0.1-0.1,0.2-0.1l0,0V7.7C7.2,7.7,7.1,7.6,7,7.5l0,0c0,0-0.1-0.1,0-0.1l0.1-0.1C7,7,6.9,6.8,6.7,6.5
		l0,0c-0.1,0.1-0.2,0-0.1-0.1l0,0C6.5,6.2,6.3,5.9,6.1,5.8C6,5.6,5.8,5.5,5.6,5.5c-0.1,0,0-0.2,0-0.1C5.3,5.1,4.9,4.9,4.5,4.8
		c-0.3-0.1-0.7-0.1-1.1,0c-0.1,0-0.1-0.1-0.1-0.1C3.2,4.8,3.1,4.8,3,4.9c-0.1,0-0.1,0-0.1-0.1C1.4,5.1,0.3,6.5,0.1,7.9
		c-0.3,1.5,0.5,3.6,2,4.2c1.2,0.6,2.8,0.2,3.8-0.5c0.1-0.1,0.3-0.2,0.4-0.3c-0.1,0-0.1,0.1-0.1,0.1C6.1,11.4,6,11.4,6,11.3z"/>
	<path fill="#FFFFFF" d="M7.2,7.5L7.2,7.5L7.2,7.5C7.2,7.4,7.2,7.5,7.2,7.5z"/>
	<path fill="#FFFFFF" d="M6.2,11.2c0.1,0,0.1,0,0.1-0.1c0.2-0.1,0.4-0.3,0.5-0.5c0.4-0.7,0.6-1.5,0.5-2.4c0,0-0.1-0.1-0.2-0.2l0,0
		C7.3,9.1,7,10.3,6.2,11.2z"/>
	<path fill="#FFFFFF" d="M7.9,6.8C7.8,6.7,7.8,6.5,7.7,6.4c-1.2-1-2.5-2-4.1-1.8c-0.1,0-0.1,0-0.2,0.1c0,0.1,0,0.1,0.1,0.1
		c0.4-0.1,0.7-0.1,1.1,0c1.8,0.3,3.3,2.1,4.8,3.1c1.4,0.9,3.2,1.4,4.7,0.6c0.1-0.1,0.3-0.3,0.4-0.4l0,0C12.4,9.5,10,8.3,8.4,7
		C8.3,6.9,8.2,6.8,8.1,6.7C8.1,6.8,7.9,6.9,7.9,6.8z"/>
	<path fill="#FFFFFF" d="M12.7,9.4c0.1,0,0.2-0.1,0.3-0.1c0,0,0,0,0-0.1c-0.2,0.1-0.5,0.2-0.8,0.3c0,0,0.1,0.1,0,0.1s-0.2,0-0.2,0
		l0,0c-0.2,0-0.5,0-0.7,0c-1.5,0-3-0.7-4-1.9l0,0c-0.1-0.1-0.1,0-0.2,0.1c0,0,0,0,0,0.1l0,0C7.2,8,7.3,8.1,7.3,8.2
		c0.1,0.1,0.2,0.2,0.3,0.3c0-0.1,0.2,0,0.2,0.1v0.1C7.9,8.8,8.1,8.9,8.2,9c0-0.1,0.2,0,0.2,0.1l0,0c0.9,0.6,2,0.9,3.1,0.8
		c0.4,0,0.8-0.2,1.2-0.3C12.6,9.6,12.6,9.5,12.7,9.4z"/>
	<path fill="#FFFFFF" d="M22.5,1.1h0.1c-0.1-0.1-0.1-0.2-0.2-0.2l0,0C22.4,1,22.5,1.1,22.5,1.1z"/>
	<path fill="#FFFFFF" d="M22.2,4L22.2,4c0.4-0.6,0.7-1.4,0.7-2.2c0-0.1-0.1-0.2-0.1-0.2V1.5c0,0,0-0.1-0.1-0.1c0,0,0,0-0.1,0l0,0
		C22.9,2.3,22.4,3.3,22,4c-0.1,0.1,0.1,0.2,0.1,0.1l0,0C22,4.1,22.1,3.9,22.2,4z"/>
	<path fill="#FFFFFF" d="M13.8,8.7C13.8,8.7,13.9,8.7,13.8,8.7c0.1,0,0.2,0.1,0.1,0.1c-0.1,0-0.2,0-0.3,0.1
		c-0.2,0.1-0.3,0.2-0.5,0.3v0.1c0.2-0.1,0.3-0.1,0.5-0.2c0.3-0.3,0.7-0.6,0.9-0.9c-0.1,0-0.1-0.1-0.1-0.1c0.4-0.4,0.7-0.9,0.9-1.4
		c0.7-1.7,1-3.7,2.5-5c0.8-0.7,1.7-1.3,2.8-1.3c0.2,0,0.3-0.1,0.5-0.1c0.1,0,0.1,0.1,0,0.1l0,0l0,0h0.1c0.3,0.1,0.6,0.2,0.9,0.4h0.1
		c0-0.1,0-0.1,0.1-0.1l0,0c-0.6-0.6-1.7-0.7-2.5-0.5c-1.4,0.3-2.8,1.6-3.3,2.9c-0.8,1.7-1.1,3.6-2.2,5.1c-0.1,0.1-0.2,0.3-0.4,0.4
		C13.9,8.6,13.9,8.6,13.8,8.7z"/>
	<path fill="#FFFFFF" d="M22.4,0.6l-0.1,0.1c0.1,0,0.1,0,0.2,0.1c0.1,0,0,0.2,0,0.1l0,0c0.1,0.1,0.1,0.2,0.2,0.2h0.1
		c0.1,0,0.1,0.1,0,0.2c0,0,0,0.1,0.1,0.1H23c0,0.3,0.1,0.6,0.1,0.8c0.1,0.3,0.2,0.6,0.2,0.9l0,0c0-0.1,0.2,0,0.1,0
		c0,0.2-0.1,0.5-0.2,0.7l0,0l0,0c0,0.2-0.1,0.5-0.2,0.7c0,0-0.1,0-0.1-0.1l0,0c0,0.1-0.2,0-0.1-0.1l0,0c-0.2-0.1-0.3-0.2-0.5-0.3
		l0,0c-0.1,0.1-0.2,0-0.1-0.1l0,0c0,0-0.1,0-0.1-0.1l0,0C22,3.7,21.9,3.9,22,4l0,0c0.3,0.2,0.7,0.4,1,0.6c0.1,0,0.1,0,0.1-0.1
		C23.8,3.4,23.5,1.8,22.4,0.6L22.4,0.6z"/>
	<path fill="#FFFFFF" d="M22.7,1.4c0,0,0-0.1,0-0.2h-0.1h-0.1c-1.5-0.5-2.9,0.2-3.9,1.3c-0.3,0.4-0.6,0.8-0.9,1.3
		c0,0.1-0.1,0-0.1-0.1c0,0.1-0.1,0.1-0.1,0.2c0,0,0,0.1-0.1,0.1c-0.2,0.3-0.3,0.6-0.5,0.9l0,0c0.1,0,0,0.2-0.1,0.1l0,0
		c-0.2,0.3-0.3,0.7-0.5,1c0.1,0,0,0.1-0.1,0.1l0,0c-0.1,0.2-0.2,0.4-0.4,0.6c-0.1,0.1-0.1,0.2-0.2,0.3l0,0c0.1,0.1,0,0.2-0.1,0.1
		l0,0C15.4,7.5,15.2,7.7,15,8l0,0c0.1,0,0,0.2,0,0.1h-0.1c-0.4,0.4-0.8,0.7-1.3,1c-0.2,0.1-0.3,0.2-0.5,0.2c0,0.1,0,0.1,0,0.2l0,0
		c1-0.3,1.8-1,2.4-1.8c0.8-0.9,1.2-2,1.7-3.1c1-1.9,3-4.2,5.4-3.3C22.6,1.4,22.6,1.4,22.7,1.4L22.7,1.4z"/>
	<path fill="#FFFFFF" d="M6.3,11.1L6.3,11.1c0,0-0.1,0-0.1,0.1c0,0,0,0-0.1,0L6,11.3c0,0.1,0,0.1,0.1,0.1s0.1-0.1,0.1-0.1h0.1
		C6.3,11.3,6.2,11.2,6.3,11.1z"/>
	<path fill="#FFFFFF" d="M8.2,9L8.2,9C8,9.7,7.6,10.2,7.1,10.7c-0.2,0.2-0.4,0.4-0.6,0.6c0.9-0.4,1.6-1.2,2-2.1l0,0
		C8.4,9,8.3,8.9,8.2,9z"/>
	<path fill="#FFFFFF" d="M3,4.9c0.1-0.1,0.3-0.1,0.4-0.1c0.1,0,0.1-0.1,0.2-0.1C4.4,4.5,5.2,4.5,6,4.8c0.7,0.3,1.4,1,1.8,1.7
		C7.9,6.6,7.9,6.7,8,6.9c0,0.1,0.2,0,0.2-0.1l0,0C7.7,5.8,6.9,4.9,6,4.6C5,4.2,3.8,4.2,2.9,4.7c0,0,0,0,0,0.1C2.8,4.8,2.9,4.9,3,4.9
		z"/>
	<path fill="#FFFFFF" d="M7.1,10.7c0.5-0.6,0.7-1.3,0.7-2V8.6c0-0.1-0.1-0.1-0.2-0.1c0,0,0,0,0,0.1c0,0.8-0.2,1.5-0.7,2.1
		c-0.2,0.2-0.3,0.3-0.5,0.5l0,0c-0.1,0.1,0,0.2,0.1,0.2l0,0l0,0C6.7,11.1,6.9,10.9,7.1,10.7z"/>
	<path fill="#FFFFFF" d="M2.9,7.3c0.4-0.1,0.7-0.5,0.7-0.9S3.1,5.7,2.7,5.7l0,0l0,0C2.2,5.8,1.9,6.2,2,6.6C2.1,7,2.5,7.3,2.9,7.3z
		 M2.4,6c0-0.1,0.1-0.2,0.1-0.3c0.1-0.1,0.2,0,0.2,0.1l0,0l0,0l0,0C3,5.9,3.3,6,3.4,6.3c0,0.3-0.2,0.6-0.5,0.7
		c0.1,0.1,0,0.2-0.1,0.1C2.7,7.1,2.7,7,2.7,7C2.4,7,2.2,6.8,2.2,6.6C2.1,6.4,2.2,6.2,2.4,6z"/>
	<path fill="#FFFFFF" d="M1.9,8.8C2.2,8.6,2.3,8,2.1,7.7C1.8,7.3,1.3,7.3,1,7.5l0,0l0,0C0.6,7.8,0.5,8.3,0.8,8.6C1,9,1.5,9,1.9,8.8z
		 M1,7.6L1,7.6C1,7.6,1.1,7.6,1,7.6C1.1,7.6,1.1,7.6,1,7.6c0.1-0.1,0.1-0.1,0.1-0.2c0.1-0.1,0.2,0,0.2,0.1c0.2,0,0.4,0,0.6,0.2
		C2.1,8,2,8.5,1.8,8.6c-0.1,0-0.1,0.1-0.2,0.1l0,0c0.1,0,0.1,0.2-0.1,0.2c-0.1,0-0.2-0.1-0.2-0.2C1.2,8.7,1,8.6,0.9,8.5
		C0.7,8.2,0.8,7.9,1,7.6z"/>
	<path fill="#FFFFFF" d="M1.8,9.4C1.7,9.4,1.7,9.4,1.8,9.4C1.7,9.4,1.7,9.4,1.8,9.4c-0.4,0.1-0.7,0.5-0.6,0.9c0,0.4,0.5,0.7,0.8,0.6
		c0.4-0.1,0.6-0.5,0.6-0.8C2.6,9.6,2.2,9.4,1.8,9.4z M2.1,10.7c0.1,0,0,0.2-0.1,0.2s-0.1-0.1-0.2-0.1c-0.5,0-0.7-0.6-0.3-1
		c0-0.1,0-0.2,0.1-0.2c0.1-0.1,0.2,0,0.2,0.1l0,0C2.4,9.5,2.7,10.4,2.1,10.7z"/>
	<path fill="#FFFFFF" d="M3.9,9.6c-0.4-0.1-0.8,0.2-1,0.6c0,0-0.1,0-0.1,0.1c-0.1,0.5,0.2,0.9,0.7,1c0.4,0.1,0.9-0.2,1-0.7
		C4.7,10.2,4.4,9.7,3.9,9.6z M4.4,10.6c0,0.1-0.1,0.3-0.2,0.4l0,0c0.1,0,0.1,0.2,0,0.2s-0.2,0-0.3,0c-0.1,0-0.2,0-0.2,0
		c-0.3-0.1-0.5-0.4-0.5-0.7l0,0c0-0.1,0-0.2,0.1-0.2c0-0.1,0-0.2,0.1-0.3c0-0.1,0.2-0.1,0.2,0C3.7,9.9,3.8,9.9,4,9.9
		C4.2,9.8,4.5,10.2,4.4,10.6z"/>
	<path fill="#FFFFFF" d="M5.3,8.4c0.1,0,0.1,0.1,0.1,0.1l0,0c0.2,0,0.4,0,0.6,0.2C6.2,9,6.2,9.4,6,9.6c0,0-0.1,0.1-0.2,0.1
		c0.1,0.1,0,0.2-0.1,0.2L5.6,9.8c-0.2,0-0.4,0-0.5-0.2C4.8,9.4,4.8,9,5,8.7l0,0l0,0c0,0,0,0,0.1,0C5.2,8.6,5.2,8.5,5.3,8.4
		C5.2,8.4,5.3,8.4,5.3,8.4C5.2,8.4,5.1,8.5,5,8.5l0,0l0,0C4.7,8.8,4.7,9.3,5,9.6s0.8,0.3,1.1,0c0.3-0.3,0.3-0.8,0-1.1
		C5.9,8.4,5.6,8.3,5.3,8.4z"/>
	<path fill="#FFFFFF" d="M4.9,7.7c0.4,0,0.7-0.4,0.7-0.8S5.2,6.2,4.8,6.1l0,0l0,0C4.3,6.2,4,6.6,4,7C4.1,7.4,4.5,7.7,4.9,7.7z
		 M4.5,6.5c0-0.1,0.1-0.1,0.1-0.2c0.1-0.1,0.2,0,0.2,0l0,0l0,0l0,0c0.3,0,0.6,0.2,0.6,0.5c0,0.2-0.1,0.4-0.3,0.5
		c0.1,0,0.1,0.2,0,0.2C5,7.6,5,7.5,4.9,7.5l0,0C4.6,7.5,4.3,7.3,4.2,7C4.2,6.8,4.3,6.6,4.5,6.5z"/>
	<path fill="#FFFFFF" d="M8.7,8.8C8.8,8.8,8.8,8.8,8.7,8.8C8.5,8.6,8.2,8.4,8,8.2l0,0c-0.1,0.1-0.2,0-0.1-0.1l0,0
		C7.6,7.9,7.4,7.7,7.2,7.5l0,0l0,0H7.1l0,0c0.1,0.1,0.1,0.1,0.2,0.2C7.7,8.2,8.2,8.6,8.7,8.8C8.7,8.9,8.7,8.9,8.7,8.8z"/>
	<path fill="#FFFFFF" d="M11.9,9.7C11.9,9.7,11.9,9.6,11.9,9.7c-0.3-0.1-0.6-0.1-0.9-0.1l0,0c0,0.1-0.2,0-0.1,0
		c-0.3-0.1-0.6-0.1-0.9-0.2c0,0,0,0-0.1,0.1s-0.2,0-0.1-0.1l0,0C9.5,9.2,9.2,9,8.9,8.9c0,0,0,0-0.1,0.1H8.7c0.8,0.4,1.6,0.7,2.4,0.8
		C11.5,9.8,11.7,9.8,11.9,9.7L11.9,9.7z"/>
	<path fill="#FFFFFF" d="M13.9,8.8c0.1,0,0.1-0.2,0-0.1l0,0C12.1,9.2,10.5,8.9,9,7.9c-0.4-0.3-0.8-0.7-1.2-1
		C7.2,6.4,6.5,5.6,5.6,5.3l0,0c-0.1,0-0.1,0.1,0,0.1C5.8,5.5,6,5.6,6.1,5.8c0.2,0.1,0.4,0.3,0.6,0.5c0,0,0,0,0-0.1
		c0.1-0.1,0.2,0,0.1,0.1l0,0l0,0C7,6.5,7.2,6.6,7.4,6.8l0,0c0.1-0.1,0.2,0,0.1,0.1l0,0C7.7,7,7.8,7.1,7.9,7.2s0.3,0.2,0.4,0.3
		c0.1,0,0.1,0,0.1,0.1C8.7,7.8,8.9,8,9.2,8.1c0,0,0,0,0.1,0l0,0c0.1-0.1,0.1,0,0.1,0.1c0.3,0.2,0.6,0.3,0.9,0.4l0,0
		c0.1-0.1,0.2,0,0.1,0.1c0.3,0.1,0.5,0.2,0.8,0.2l0,0C11.5,9,11.8,9,12.1,9c0,0,0-0.1,0.1-0.1c0.1-0.1,0.2,0,0.1,0.1l0,0
		c0.3,0,0.5,0,0.8,0l0,0c0-0.1,0.1-0.1,0.1,0c0.2,0,0.3-0.1,0.5-0.1C13.7,8.9,13.8,8.8,13.9,8.8z"/>
	<path fill="#FFFFFF" d="M7.1,7.5L7.1,7.5C7.2,7.5,7.2,7.4,7.1,7.5c0.2-0.2,0.3-0.4,0.5-0.6l0,0c0.1-0.1-0.1-0.1-0.1-0.1l0,0
		C7.4,7,7.2,7.1,7.1,7.3V7.5C7,7.5,7,7.5,7.1,7.5L7.1,7.5z"/>
	<path fill="#FFFFFF" d="M7.9,8.1C7.9,8.1,7.8,8.1,7.9,8.1C7.8,8.2,7.9,8.3,7.9,8.1L7.9,8.1C8.1,8,8.3,7.8,8.4,7.6l0,0
		c0-0.1,0-0.1-0.1-0.1l0,0C8.2,7.7,8,7.9,7.9,8.1z"/>
	<path fill="#FFFFFF" d="M8.7,8.8C8.7,8.9,8.7,8.9,8.7,8.8c0,0.1,0,0.1,0,0.1h0.1c0,0,0,0,0.1-0.1C9,8.6,9.2,8.5,9.4,8.3l0,0
		c0-0.1-0.1-0.1-0.1-0.1l0,0C9.1,8.4,8.9,8.6,8.7,8.8C8.8,8.8,8.8,8.8,8.7,8.8z"/>
	<path fill="#FFFFFF" d="M6.9,6.3C7,6.2,6.9,6.1,6.9,6.3C6.8,6.2,6.8,6.2,6.9,6.3L6.7,6.4l0,0c-0.1,0.1,0,0.2,0.1,0.1l0,0
		C6.8,6.5,6.8,6.4,6.9,6.3L6.9,6.3z"/>
	<path fill="#FFFFFF" d="M14.7,8C14.7,8,14.7,7.9,14.7,8c0.3-0.4,0.5-0.7,0.7-1l0,0c-0.1-0.1,0-0.2,0.1-0.1l0,0
		C15.7,6.6,15.8,6.3,16,6l0,0c-0.1-0.1,0-0.1,0.1-0.1c0.2-0.4,0.3-0.7,0.5-1.1c0,0,0,0-0.1,0s0-0.2,0.1-0.1l0,0
		c0.1-0.3,0.3-0.6,0.4-0.9l0,0c-0.1-0.1,0-0.2,0.1-0.1l0,0c0.1-0.2,0.1-0.3,0.2-0.5c0.1-0.1,0.2-0.3,0.2-0.4l0,0
		c-0.1-0.1,0-0.2,0.1-0.1l0,0c0.2-0.3,0.3-0.5,0.5-0.7l0,0c-0.1-0.1,0-0.2,0.1-0.1l0,0c0.1-0.1,0.2-0.2,0.3-0.3
		c0.2-0.1,0.3-0.2,0.5-0.4l0,0C18.9,1,19,0.9,19.1,1c0.3-0.2,0.7-0.3,1-0.4l0,0c0-0.1,0.1-0.2,0.1-0.1l0,0c0.3-0.1,0.6-0.2,1-0.2
		l0,0c0.1,0,0.1-0.2,0-0.1c-0.2,0-0.3,0.1-0.5,0.1c-1.5,0.4-2.8,1.2-3.5,2.6c-0.7,1.2-1.1,2.6-1.7,3.8C15.2,7.2,14.9,7.7,14.7,8
		c-0.1,0.2-0.1,0.2,0,0.2l0,0C14.6,8.1,14.7,8,14.7,8z"/>
	<path fill="#FFFFFF" d="M22.8,1.6c0.1,0.1,0.1,0.2,0.1,0.2c0.3,0.8-0.1,1.6-0.6,2.3l0,0c-0.1,0.1,0.1,0.2,0.1,0.1l0,0
		c0.1-0.2,0.3-0.4,0.4-0.7c0,0,0,0,0-0.1c-0.1-0.1,0-0.2,0.1-0.1l0,0c0.2-0.4,0.3-0.8,0.2-1.2c0-0.2-0.1-0.5-0.3-0.7
		C22.9,1.5,22.8,1.5,22.8,1.6C22.8,1.5,22.7,1.5,22.8,1.6z"/>
	<path fill="#FFFFFF" d="M23.2,3.9L23.2,3.9c-0.1,0.2-0.2,0.4-0.3,0.6l0,0c0,0.1,0.1,0.2,0.1,0.1l0,0c0.1-0.2,0.2-0.4,0.3-0.6l0,0
		C23.3,3.9,23.2,3.9,23.2,3.9z"/>
	<path fill="#FFFFFF" d="M23.3,3.8L23.3,3.8c0.1-0.2,0.1-0.5,0.2-0.7c0-0.1-0.1-0.1-0.1,0l0,0c0,0.2-0.1,0.4-0.1,0.6
		C23.2,3.7,23.3,3.8,23.3,3.8z"/>
	<path fill="#FFFFFF" d="M23.3,3.8l-0.1-0.1c-0.1-0.1-0.2-0.3-0.3-0.4l0,0c-0.1-0.1-0.1,0.1-0.1,0.1s0,0,0,0.1
		c0.1,0.1,0.2,0.2,0.3,0.4l0,0C23.2,3.9,23.3,3.9,23.3,3.8C23.3,3.9,23.3,3.9,23.3,3.8L23.3,3.8z"/>
	<path fill="#FFFFFF" d="M21.4,0.6v0.1l0,0c0.3,0,0.6,0,0.9,0.1l0,0l0,0c0.1,0,0.1-0.1,0-0.1s-0.1,0-0.2-0.1H22
		C21.9,0.6,21.7,0.6,21.4,0.6z"/>
	<path fill="#FFFFFF" d="M21.3,0.8L21.3,0.8c0-0.1,0-0.1,0-0.1c-0.3,0-0.6,0.1-0.9,0.2c0,0-0.1,0.1-0.1,0C20,1,19.8,1.2,19.5,1.4
		c0,0.1,0,0.1-0.1,0.1l0,0C19,1.7,18.8,2,18.6,2.2l0,0c0.1,0.1,0,0.2-0.1,0.1l0,0C18.3,2.5,18.2,2.8,18,3c0,0,0,0.1-0.1,0.1
		c-0.1,0.2-0.2,0.4-0.3,0.5l0,0c0,0.1,0.1,0.1,0.1,0.1c0.2-0.4,0.5-0.9,0.9-1.3C19.3,1.6,20.2,0.8,21.3,0.8z"/>
	<path fill="#FFFFFF" d="M18.1,1.8c-0.1-0.1-0.2,0-0.1,0.1l0,0c0.1,0.2,0.3,0.3,0.4,0.5l0,0c0.1,0.1,0.2,0,0.1-0.1l0,0
		C18.4,2.1,18.3,1.9,18.1,1.8L18.1,1.8z"/>
	<path fill="#FFFFFF" d="M19.1,1L19.1,1c0-0.1-0.2,0-0.1,0.1l0,0c0.1,0.2,0.2,0.3,0.4,0.4l0,0c0.1,0,0.1,0,0.1-0.1l0,0
		C19.3,1.3,19.1,1.1,19.1,1z"/>
	<path fill="#FFFFFF" d="M20.2,0.5L20.2,0.5c-0.1-0.1-0.2-0.1-0.1,0l0,0c0,0.1,0.1,0.2,0.1,0.3l0,0h0.1l0,0
		C20.3,0.7,20.2,0.6,20.2,0.5z"/>
	<path fill="#FFFFFF" d="M21.2,0.3c0,0.1,0.1,0.2,0.1,0.3v0.1l0,0c0,0.1,0.1,0.1,0.1,0l0,0V0.6c0-0.1-0.1-0.2-0.1-0.3l0,0
		C21.3,0.3,21.2,0.2,21.2,0.3L21.2,0.3z"/>
	<path fill="#FFFFFF" d="M2.7,7.1L2.7,7.1C2.9,7.2,3,7.1,2.9,7l0,0C2.5,6.8,2.4,6.3,2.7,5.9l0,0c0.1-0.1-0.1-0.2-0.2-0.1
		C2.4,5.9,2.4,6,2.4,6C2.3,6.4,2.4,6.8,2.7,7.1z"/>
	<path fill="#FFFFFF" d="M1.3,8.7c0.1,0.1,0.1,0.1,0.2,0.2C1.7,9,1.7,8.8,1.6,8.7l0,0C1.1,8.5,1,8,1.3,7.6l0,0
		c0-0.1-0.1-0.2-0.2-0.1c0,0.1,0,0.1-0.1,0.2C0.9,8,1,8.5,1.3,8.7z"/>
	<path fill="#FFFFFF" d="M1.8,9.6L1.8,9.6c0-0.1-0.1-0.2-0.2-0.1c0,0.1,0,0.2-0.1,0.3c-0.1,0.4,0,0.8,0.3,1c0.1,0,0.1,0.1,0.2,0.1
		c0.1,0,0.2-0.1,0.1-0.2l0,0C1.7,10.5,1.5,10,1.8,9.6z"/>
	<path fill="#FFFFFF" d="M3.4,9.9C3.5,9.9,3.4,9.9,3.4,9.9c0-0.1-0.1-0.2-0.2-0.1c0,0.1-0.1,0.2-0.1,0.3c0,0.4,0.2,0.9,0.7,1
		c0.1,0,0.2,0,0.3,0c0.1,0,0.1-0.2,0-0.2l0,0C3.6,11,3.2,10.4,3.4,9.9z"/>
	<path fill="#FFFFFF" d="M4.9,7.5C5,7.5,5,7.6,5.1,7.6s0.1-0.1,0-0.2l0,0c-0.5-0.1-0.7-0.6-0.4-1c0,0,0,0,0-0.1s-0.1-0.1-0.2,0
		c0,0.1-0.1,0.1-0.1,0.2C4.3,6.9,4.5,7.3,4.9,7.5z"/>
	<path fill="#FFFFFF" d="M5.2,8.7c-0.1,0.4,0,0.9,0.4,1.1l0.1,0.1C5.8,10,5.9,9.8,5.8,9.7l0,0C5.4,9.5,5.2,9,5.4,8.6l0,0
		c0-0.1,0-0.2-0.1-0.1l0,0c0,0,0,0-0.1,0C5.2,8.5,5.2,8.6,5.2,8.7z"/>
	<path fill="#FFFFFF" d="M3.3,8.1C3.3,8.1,3.2,8.1,3.3,8.1c-0.2,0-0.2,0.1-0.2,0.1s0,0.1-0.1,0.1c0,0,0,0,0,0.1s0,0.1,0,0.2
		c0.1,0.2,0.4,0.2,0.5,0s0.1-0.4-0.1-0.5C3.4,8.1,3.4,8.1,3.3,8.1z M3.4,8.5c-0.1,0.1-0.2,0-0.2-0.1C3.3,8.2,3.6,8.3,3.4,8.5z"/>
</g>
</svg>
