<?xml version="1.0" encoding="utf-8"?>
<!-- Generator: Adobe Illustrator 25.4.1, SVG Export Plug-In . SVG Version: 6.00 Build 0)  -->
<svg version="1.2" baseProfile="tiny" id="Layer_1" xmlns="http://www.w3.org/2000/svg" xmlns:xlink="http://www.w3.org/1999/xlink"
	 x="0px" y="0px" viewBox="0 0 136.6 105.3" overflow="visible" xml:space="preserve">
<g>
	<path fill="#FFFFFF" d="M19.3,89.6c11.4,1.2,22.7,2.7,34,4.6c11,1.8,22,3.8,32.9,6.2c8.2,1.8,18.5,6.2,26.9,4.7
		c9.4-1.7,9.9-12.3,11.4-19.9c2.7-13,5.3-26.1,8-39.1c1.6-8,6.9-21.7,1.8-29.5c-2.6-4-8.8-5.3-13.2-5.8c-14.4-2-28.7-3.8-43.1-5.5
		C66.6,3.8,54.9,2.5,43.3,1.4c-7.9-0.7-16.1-1.8-24-1.3c-1.3,0.1-3.3,0-4.4,0.9c-1.5,1.2-1.5,4.2-1.9,5.8c-1.3,5.6-2.6,11.3-3.8,17
		C6.9,35.2,4.8,46.6,3,58.1c-0.9,5.3-1.7,10.6-2.5,16c-0.4,3.1-1.1,6.4,0.6,9.3C4.4,89.3,13.5,88.9,19.3,89.6z M4.3,66.1
		c2.9-18.8,6.3-37.6,10.6-56.2c0.9-4.1,0-6.8,4.1-7.2c2.7-0.2,5.5,0,8.2,0.1C45,3.6,62.7,5.9,80.4,8c13.4,1.6,26.9,3.3,40.3,5.1
		c5.1,0.6,11.2,2,12.7,7.6c1.5,5.7-0.8,12.6-1.9,18.2c-1,5-2.1,10.1-3.1,15.1c-1.9,9.3-3.8,18.5-5.7,27.8c-0.9,4.5-1.5,9.2-2.9,13.5
		c-3,9.4-11.6,7.2-18.9,5.5C83,96.8,65,93.2,46.9,90.5c-8-1.2-16-2.2-24-3.2c-4.2-0.5-8.5-0.6-12.7-1.4C0.5,83.8,3.2,73.4,4.3,66.1z
		"/>
	<path fill="#FFFFFF" d="M26.6,70c12.7-7.5,25.4-15,38.1-22.5c0.7-0.4,0.9-1.5,0.2-2C55.2,37.3,45.4,29.2,35.6,21
		c-0.5-0.9-2-1-2.4,0.2c-5,15.5-7.8,31.4-8.6,47.6C24.6,69.9,25.8,70.4,26.6,70z M34.5,21.6l0.2,0.3c9.8,8.1,19.5,16.3,29.3,24.4
		c-12.7,7.5-25.4,15-38.1,22.5C26.6,52.8,29.5,36.9,34.5,21.6z"/>
	<path fill="#FFFFFF" d="M73.4,75.4c13.3-6.8,26.5-13.8,39.2-21.7c0.7-0.4,0.8-1.4,0.2-2c-9.1-9.2-18.9-17.7-28-26.9
		c-0.1-0.1-0.2-0.1-0.3-0.1c-0.1,0-0.2-0.1-0.3-0.1c-0.3-0.1-0.5,0-0.7,0.1c-0.1,0-0.2,0.1-0.3,0.1c-0.1,0.1-0.2,0.2-0.3,0.4
		c-0.1,0.1-0.2,0.1-0.2,0.3c-5.1,15.8-8.2,32.3-11.2,48.6C71.3,75.1,72.4,75.9,73.4,75.4z M72.7,74.3c0,0,6.3-33.7,11.2-48.6
		c9.1,9.1,19,17.7,28,26.9C98.8,60.8,72.7,74.3,72.7,74.3z"/>
	<path fill="#FFFFFF" d="M25.9,68.9c12.7-7.5,25.4-15,38.1-22.5c-9.8-8.1-19.5-16.3-29.3-24.4l-0.2-0.3
		C29.5,36.9,26.6,52.8,25.9,68.9z"/>
	<path fill="#FFFFFF" d="M83.9,25.7C79,40.6,72.7,74.3,72.7,74.3s26.1-13.4,39.2-21.7C102.9,43.4,93,34.8,83.9,25.7z"/>
</g>
</svg>
